<svg width="113" height="109" viewBox="0 0 113 109" fill="none" xmlns="http://www.w3.org/2000/svg">
<path d="M56.0571 61.3508C60.7011 61.3508 64.4657 57.5861 64.4657 52.9421C64.4657 48.2981 60.7011 44.5334 56.0571 44.5334C51.4131 44.5334 47.6484 48.2981 47.6484 52.9421C47.6484 57.5861 51.4131 61.3508 56.0571 61.3508Z" stroke="#B87333" stroke-width="2.80288"/>
<path opacity="0.7" d="M28.0287 38.9278C31.8987 38.9278 35.0359 35.7905 35.0359 31.9205C35.0359 28.0506 31.8987 24.9133 28.0287 24.9133C24.1587 24.9133 21.0215 28.0506 21.0215 31.9205C21.0215 35.7905 24.1587 38.9278 28.0287 38.9278Z" stroke="#B87333" stroke-width="2.80288"/>
<path opacity="0.7" d="M84.0873 38.9278C87.9573 38.9278 91.0945 35.7905 91.0945 31.9205C91.0945 28.0506 87.9573 24.9133 84.0873 24.9133C80.2173 24.9133 77.0801 28.0506 77.0801 31.9205C77.0801 35.7905 80.2173 38.9278 84.0873 38.9278Z" stroke="#B87333" stroke-width="2.80288"/>
<path opacity="0.7" d="M35.0365 80.971C38.9065 80.971 42.0437 77.8337 42.0437 73.9638C42.0437 70.0938 38.9065 66.9565 35.0365 66.9565C31.1665 66.9565 28.0293 70.0938 28.0293 73.9638C28.0293 77.8337 31.1665 80.971 35.0365 80.971Z" stroke="#B87333" stroke-width="2.80288"/>
<path opacity="0.7" d="M77.0795 80.971C80.9495 80.971 84.0867 77.8337 84.0867 73.9638C84.0867 70.0938 80.9495 66.9565 77.0795 66.9565C73.2095 66.9565 70.0723 70.0938 70.0723 73.9638C70.0723 77.8337 73.2095 80.971 77.0795 80.971Z" stroke="#B87333" stroke-width="2.80288"/>
<path opacity="0.5" d="M33.6348 36.1248L50.4521 48.7377" stroke="#B87333" stroke-width="2.80288" stroke-linecap="round"/>
<path opacity="0.5" d="M78.4814 36.1248L61.6641 48.7377" stroke="#B87333" stroke-width="2.80288" stroke-linecap="round"/>
<path opacity="0.5" d="M40.6426 69.7594L50.4527 58.5479" stroke="#B87333" stroke-width="2.80288" stroke-linecap="round"/>
<path opacity="0.5" d="M71.4742 69.7594L61.6641 58.5479" stroke="#B87333" stroke-width="2.80288" stroke-linecap="round"/>
<path opacity="0.3" d="M35.0352 31.9204H77.0784" stroke="#B87333" stroke-width="2.80288" stroke-linecap="round"/>
<path opacity="0.3" d="M42.043 73.9636H70.0718" stroke="#B87333" stroke-width="2.80288" stroke-linecap="round"/>
</svg>
