<svg width="113" height="113" viewBox="0 0 113 113" fill="none" xmlns="http://www.w3.org/2000/svg">
<path d="M56.0572 50.4519C62.2492 50.4519 67.2688 45.4323 67.2688 39.2403C67.2688 33.0484 62.2492 28.0288 56.0572 28.0288C49.8653 28.0288 44.8457 33.0484 44.8457 39.2403C44.8457 45.4323 49.8653 50.4519 56.0572 50.4519Z" stroke="#B87333" stroke-width="2.80288" stroke-linecap="round"/>
<path d="M39.2402 72.8749C39.2402 63.587 46.7696 56.0576 56.0575 56.0576C65.3455 56.0576 72.8748 63.587 72.8748 72.8749V78.4807H39.2402V72.8749Z" stroke="#B87333" stroke-width="2.80288" stroke-linecap="round" stroke-linejoin="round"/>
<path opacity="0.6" d="M28.0288 53.2548C32.6727 53.2548 36.4374 49.4901 36.4374 44.8462C36.4374 40.2022 32.6727 36.4375 28.0288 36.4375C23.3848 36.4375 19.6201 40.2022 19.6201 44.8462C19.6201 49.4901 23.3848 53.2548 28.0288 53.2548Z" stroke="#B87333" stroke-width="2.80288" stroke-linecap="round"/>
<path opacity="0.6" d="M14.0146 75.6778C14.0146 69.4859 19.0342 64.4663 25.2262 64.4663C27.3283 64.4663 28.7298 64.7466 30.832 65.5875" stroke="#B87333" stroke-width="2.80288" stroke-linecap="round"/>
<path opacity="0.6" d="M84.0864 53.2548C88.7304 53.2548 92.495 49.4901 92.495 44.8462C92.495 40.2022 88.7304 36.4375 84.0864 36.4375C79.4424 36.4375 75.6777 40.2022 75.6777 44.8462C75.6777 49.4901 79.4424 53.2548 84.0864 53.2548Z" stroke="#B87333" stroke-width="2.80288" stroke-linecap="round"/>
<path opacity="0.6" d="M98.1005 75.6778C98.1005 69.4859 93.081 64.4663 86.889 64.4663C84.7868 64.4663 83.3854 64.7466 81.2832 65.5875" stroke="#B87333" stroke-width="2.80288" stroke-linecap="round"/>
</svg>
