<svg width="113" height="113" viewBox="0 0 113 113" fill="none" xmlns="http://www.w3.org/2000/svg">
<g clip-path="url(#clip0_305_811)">
<path d="M81.2841 41.8125H30.8322C29.2842 41.8125 28.0293 43.0674 28.0293 44.6154V88.0601C28.0293 89.6081 29.2842 90.863 30.8322 90.863H81.2841C82.8321 90.863 84.087 89.6081 84.087 88.0601V44.6154C84.087 43.0674 82.8321 41.8125 81.2841 41.8125Z" stroke="#B87333" stroke-width="2.80288"/>
<path d="M56.0586 41.8125V90.863" stroke="#B87333" stroke-width="2.80288"/>
<path opacity="0.8" d="M49.05 27.7981L50.4515 23.5938L51.8529 27.7981L56.0572 29.1995L51.8529 30.601L50.4515 34.8053L49.05 30.601L44.8457 29.1995L49.05 27.7981Z" stroke="#B87333" stroke-width="2.10216" stroke-linecap="round" stroke-linejoin="round"/>
<path opacity="0.6" d="M67.2697 20.7909L68.3908 17.988L69.512 20.7909L72.3149 21.9121L69.512 23.0332L68.3908 25.8361L67.2697 23.0332L64.4668 21.9121L67.2697 20.7909Z" stroke="#B87333" stroke-width="2.10216" stroke-linecap="round" stroke-linejoin="round"/>
<path opacity="0.7" d="M75.6783 33.4037L76.3791 31.3015L77.0798 33.4037L79.1819 34.1044L77.0798 34.8051L76.3791 36.9073L75.6783 34.8051L73.5762 34.1044L75.6783 33.4037Z" stroke="#B87333" stroke-width="2.10216" stroke-linecap="round" stroke-linejoin="round"/>
<path opacity="0.5" d="M35.0371 55.827C37.84 53.9584 40.6429 53.9584 43.4458 55.827C46.2486 57.6956 49.0515 57.6956 51.8544 55.827" stroke="#B87333" stroke-width="2.10216" stroke-linecap="round"/>
<path opacity="0.5" d="M60.2617 62.8341C63.0646 60.9655 65.8675 60.9655 68.6704 62.8341C71.4733 64.7026 74.2761 64.7026 77.079 62.8341" stroke="#B87333" stroke-width="2.10216" stroke-linecap="round"/>
<path opacity="0.5" d="M35.0371 69.8414C37.84 67.9728 40.6429 67.9728 43.4458 69.8414C46.2486 71.71 49.0515 71.71 51.8544 69.8414" stroke="#B87333" stroke-width="2.10216" stroke-linecap="round"/>
<path opacity="0.5" d="M60.2617 76.8485C63.0646 74.9799 65.8675 74.9799 68.6704 76.8485C71.4733 78.7171 74.2761 78.7171 77.079 76.8485" stroke="#B87333" stroke-width="2.10216" stroke-linecap="round"/>
</g>
<defs>
<clipPath id="clip0_305_811">
<rect width="112.115" height="112.115" fill="white"/>
</clipPath>
</defs>
</svg>
