<svg width="426" height="412" viewBox="0 0 426 412" fill="none" xmlns="http://www.w3.org/2000/svg">
<path d="M422.755 386.509H301.748L264.935 315.012C274.539 306.852 283.798 298.693 292.699 290.535C311.424 273.373 328.713 256.085 344.417 238.682L422.755 386.509ZM258.209 273.793L256.07 275.687C257.076 274.799 258.076 273.91 259.073 273.022C258.785 273.279 258.498 273.537 258.209 273.793ZM262.157 270.264C261.278 271.054 260.396 271.843 259.51 272.633C260.396 271.843 261.278 271.054 262.157 270.264ZM264.995 267.702C264.264 268.364 263.53 269.028 262.794 269.691C263.53 269.028 264.264 268.364 264.995 267.702ZM268.69 264.337C267.721 265.226 266.747 266.113 265.769 267.001C266.747 266.113 267.721 265.225 268.689 264.337L271.637 261.625C270.659 262.529 269.677 263.433 268.69 264.337ZM252.255 64.7671C213.203 73.0218 179.36 84.8303 150.069 99.1694L114.633 33.4487H235.658L252.255 64.7671Z" fill="#1C1C1C"/>
<path fill-rule="evenodd" clip-rule="evenodd" d="M326.858 89.6575C109.329 107.698 108.09 367.196 108.09 367.196C115.299 305 365.595 172.5 395.553 94.0983C374.375 149.523 330.854 206.444 267.686 264.337C223.707 304.647 170.204 345.43 108.09 386.504H4.19157C4.19157 386.504 -10.2538 118.198 326.858 89.6575Z" fill="#1C1C1C"/>
</svg>
