<svg width="24" height="24" viewBox="0 0 24 24" fill="none" xmlns="http://www.w3.org/2000/svg">
<g clip-path="url(#clip0_905_178)">
<path fill-rule="evenodd" clip-rule="evenodd" d="M0 11.3143C0 7.35393 2.84367e-07 5.3737 0.779993 3.86107C1.46609 2.53049 2.56087 1.4487 3.90743 0.770739C5.43822 2.80993e-07 7.44223 0 11.4501 0H12.4043C16.4122 0 18.4162 2.80993e-07 19.947 0.770739C21.2936 1.4487 22.3884 2.53049 23.0744 3.86107C23.8544 5.3737 23.8544 7.35393 23.8544 11.3143V12.2571C23.8544 16.2175 23.8544 18.1977 23.0744 19.7103C22.3884 21.0409 21.2936 22.1227 19.947 22.8006C18.4162 23.5714 16.4122 23.5714 12.4043 23.5714H11.4501C7.44223 23.5714 5.43822 23.5714 3.90743 22.8006C2.56087 22.1227 1.46609 21.0409 0.779993 19.7103C2.84367e-07 18.1977 0 16.2175 0 12.2571V11.3143ZM11.4501 2.35714H12.4043C14.4477 2.35714 15.8366 2.35898 16.9103 2.44565C17.9562 2.53009 18.491 2.68312 18.8641 2.87097C19.7617 3.32295 20.4916 4.04414 20.949 4.93114C21.1391 5.2998 21.294 5.82827 21.3794 6.86176C21.4671 7.92271 21.469 9.29516 21.469 11.3143V12.2571C21.469 14.2763 21.4671 15.6487 21.3794 16.7097C21.294 17.7432 21.1391 18.2716 20.949 18.6403C20.4916 19.5273 19.7617 20.2484 18.8641 20.7004C18.491 20.8883 17.9562 21.0414 16.9103 21.1258C15.8366 21.2124 14.4477 21.2143 12.4043 21.2143H11.4501C9.40676 21.2143 8.01784 21.2124 6.94415 21.1258C5.89825 21.0414 5.36343 20.8883 4.99035 20.7004C4.0927 20.2484 3.36285 19.5273 2.90544 18.6403C2.71534 18.2716 2.56046 17.7432 2.47502 16.7097C2.38731 15.6487 2.38544 14.2763 2.38544 12.2571V11.3143C2.38544 9.29516 2.38731 7.92271 2.47502 6.86176C2.56046 5.82827 2.71534 5.2998 2.90544 4.93114C3.36285 4.04414 4.0927 3.32295 4.99035 2.87097C5.36343 2.68312 5.89825 2.53009 6.94415 2.44565C8.01784 2.35898 9.40676 2.35714 11.4501 2.35714Z" fill="#F3F3F3"/>
<path d="M20.3491 5.2895C20.3491 6.28358 19.548 7.0895 18.56 7.0895C17.5719 7.0895 16.7709 6.28358 16.7709 5.2895C16.7709 4.29539 17.5719 3.4895 18.56 3.4895C19.548 3.4895 20.3491 4.29539 20.3491 5.2895Z" fill="#F3F3F3"/>
<path fill-rule="evenodd" clip-rule="evenodd" d="M12.0001 17.8896C15.2937 17.8896 17.9637 15.2033 17.9637 11.8896C17.9637 8.57597 15.2937 5.88965 12.0001 5.88965C8.70652 5.88965 6.03649 8.57597 6.03649 11.8896C6.03649 15.2033 8.70652 17.8896 12.0001 17.8896ZM12.0001 15.4896C13.9763 15.4896 15.5783 13.8779 15.5783 11.8896C15.5783 9.90137 13.9763 8.28965 12.0001 8.28965C10.0239 8.28965 8.42194 9.90137 8.42194 11.8896C8.42194 13.8779 10.0239 15.4896 12.0001 15.4896Z" fill="#F3F3F3"/>
</g>
<defs>
<clipPath id="clip0_905_178">
<rect width="24" height="24" fill="white"/>
</clipPath>
</defs>
</svg>
