<svg width="24" height="14" viewBox="0 0 24 14" fill="none" xmlns="http://www.w3.org/2000/svg">
<path fill-rule="evenodd" clip-rule="evenodd" d="M10.2229 12.9974V0.870144C10.2229 0.484498 10.3372 0.253534 10.5669 0.179283C14.3919 -0.739315 18.2561 1.9706 18.6072 6.05337C22.3465 4.44973 25.5979 9.28242 22.7 12.1843C21.9657 12.9197 21.085 13.2873 20.058 13.2873L10.4217 13.2767C10.2943 13.2336 10.2229 13.0992 10.2229 12.9974ZM7.63089 12.6408C7.63089 13.5174 9.27085 13.5282 9.27085 12.6408V0.972888C9.27085 -0.13135 7.63089 -0.126549 7.63089 0.972888V12.6408ZM5.08407 12.6408C5.08407 13.4971 6.72284 13.5306 6.72284 12.6408V5.76345C6.72284 4.65922 5.08407 4.66401 5.08407 5.76345V12.6408ZM2.54677 12.2835C2.54677 13.165 4.17602 13.1794 4.17602 12.2835V4.74901C4.17602 3.68189 2.54677 3.66872 2.54677 4.74901V12.2835ZM-5.72205e-05 10.9018C-5.72205e-05 11.9306 1.62801 12.1905 1.62801 10.9018V7.66893C1.62801 6.57428 -5.72205e-05 6.58386 -5.72205e-05 7.66893V10.9018Z" fill="#F3F3F3"/>
</svg>
