<svg width="24" height="17" viewBox="0 0 24 17" fill="none" xmlns="http://www.w3.org/2000/svg">
<path fill-rule="evenodd" clip-rule="evenodd" d="M9.51176 11.5925V4.80613C11.8839 5.93977 13.7211 7.03488 15.8939 8.21556C14.1018 9.22498 11.8839 10.3576 9.51176 11.5925ZM22.7316 1.43095C22.3224 0.883424 21.625 0.457224 20.8825 0.316122C18.7002 -0.104775 5.0854 -0.105972 2.90424 0.316122C2.30884 0.429482 1.77865 0.70349 1.3232 1.12921C-0.595838 2.93821 0.00549879 12.6393 0.468062 14.2107C0.662575 14.8909 0.91403 15.3814 1.23071 15.7034C1.63871 16.1291 2.19734 16.4223 2.83899 16.5537C4.63587 16.9312 13.893 17.1423 20.8445 16.6104C21.485 16.497 22.0519 16.1945 22.4991 15.7507C24.2734 13.9489 24.1525 3.70305 22.7316 1.43095Z" fill="#F3F3F3"/>
</svg>
