<svg width="108" height="104" viewBox="0 0 108 104" fill="none" xmlns="http://www.w3.org/2000/svg">
<path d="M106.715 97.5654H76.1698L66.8768 79.5166C69.3011 77.4569 71.6388 75.3982 73.8856 73.3389L75.4178 71.9219C79.559 68.0557 83.407 64.1626 86.9393 60.248L106.715 97.5654ZM65.7147 68.6348C65.0022 69.2716 64.2807 69.9092 63.5497 70.5469C63.915 70.2282 64.2778 69.9093 64.6385 69.5908L65.7147 68.6348ZM63.6756 16.3496C53.818 18.4334 45.2754 21.4145 37.8817 25.0342L28.9364 8.44336H59.4862L63.6756 16.3496Z" fill="#F3F3F3"/>
<path fill-rule="evenodd" clip-rule="evenodd" d="M82.5077 22.6321C27.5976 27.1861 27.2849 92.6904 27.2849 92.6904C29.1046 76.9904 92.286 43.5438 99.8484 23.7531C94.5023 37.7439 83.5164 52.1122 67.5712 66.726C56.4695 76.9014 42.9639 87.1959 27.2849 97.5643H1.05797C1.05797 97.5643 -2.58845 29.8365 82.5077 22.6321Z" fill="#F3F3F3"/>
</svg>
